# xmcd
#
# Track frame offsets:
#	150
#	23552
#	49225
#	69830
#	93803
#	121495
#	138251
#	161464
#
# Disc length: 2449 seconds
#
# Revision: 13
# Processed by: cddbd v1.5.2PL0 Copyright (c) Steve Scherf et al.
# Submitted via: Jack! The Knife 20 Magnifico
#
DISCID=5b098f08
DTITLE=Loudness - The Birthday Eve
DYEAR=1981
DGENRE=Heavy Metal
TTITLE0=Loudness
TTITLE1=Sexy Woman
TTITLE2=Open Your Eyes
TTITLE3=Street Woman
TTITLE4=To Be Demon
TTITLE5=I'm On Fire
TTITLE6=High Try
TTITLE7=Rock Shock (More And More)
EXTD=Loudness
EXTT0=Akira Takasaki
EXTT1=Akira Takasaki
EXTT2=Akira Takasaki
EXTT3=Akira Takasaki
EXTT4=Akira Takasaki
EXTT5=Akira Takasaki
EXTT6=Akira Takasaki
EXTT7=Akira Takasaki
PLAYORDER=
